<svg width="192" height="192" viewBox="0 0 192 192" fill="none" xmlns="http://www.w3.org/2000/svg">


<rect width="192" height="192" rx="24" fill="#0C1220"/>
<g transform="translate(28.799999999999997,28.799999999999997) scale(0.6719999999999999)">
  <rect x="22" y="22" width="44" height="44" rx="6" fill="#F59E0B"/>
<rect x="78" y="22" width="44" height="44" rx="6" fill="#0F1729" stroke="#1A2744" stroke-width="1.5"/>
<rect x="134" y="22" width="44" height="44" rx="6" fill="#0F1729" stroke="#1A2744" stroke-width="1.5"/>
<rect x="22" y="78" width="44" height="44" rx="6" fill="#0F1729" stroke="#1A2744" stroke-width="1.5"/>
<rect x="78" y="78" width="44" height="44" rx="6" fill="#F59E0B"/>
<rect x="134" y="78" width="44" height="44" rx="6" fill="#0F1729" stroke="#1A2744" stroke-width="1.5"/>
<rect x="22" y="134" width="44" height="44" rx="6" fill="#0F1729" stroke="#1A2744" stroke-width="1.5"/>
<rect x="78" y="134" width="44" height="44" rx="6" fill="#0F1729" stroke="#1A2744" stroke-width="1.5"/>
<rect x="134" y="134" width="44" height="44" rx="6" fill="#F59E0B"/>
<circle cx="100" cy="44" r="3" fill="#3B82F6" opacity="0.6"/>
<circle cx="156" cy="44" r="3" fill="#3B82F6" opacity="0.4"/>
<circle cx="44" cy="100" r="3" fill="#3B82F6" opacity="0.4"/>
<circle cx="156" cy="100" r="3" fill="#3B82F6" opacity="0.6"/>
<circle cx="44" cy="156" r="3" fill="#3B82F6" opacity="0.6"/>
<circle cx="100" cy="156" r="3" fill="#3B82F6" opacity="0.4"/>
<rect x="36" y="36" width="16" height="16" rx="2" fill="none" stroke="#92400E" stroke-width="1.5" opacity="0.3"/>
<rect x="92" y="92" width="16" height="16" rx="2" fill="none" stroke="#92400E" stroke-width="1.5" opacity="0.3"/>
<rect x="148" y="148" width="16" height="16" rx="2" fill="none" stroke="#92400E" stroke-width="1.5" opacity="0.3"/>
</g>

</svg>